<svg xmlns="http://www.w3.org/2000/svg" width="15mm" height="28.29mm" viewBox="0 0 744.1 1052.4">
    <path d="m353 887-55-32-18-12-1-31-2-54-1-23-40 23-50 26c-10 4-11 4-30-8l-51-30-33-19V360l14-9 56-33 41-24 14 7a1303 1303 0 0 1 79 43c1-2 3-46 3-74l1-32 55-32 55-32 50 28c122 68 180 100 223 126l47 28-1 19-2 63v45l-30 17c-33 19-62 37-62 39 0 1 32 21 47 28l29 17 16 11-1 65v65l-44 25a56664 56664 0 0 0-273 158l-36-21z" style="fill:#1a1a1a;stroke:none"/>
    <path d="M383 838c1-33 0-50-2-53-1-2-18-12-37-22a716 716 0 0 1-50-28l-1 52 1 51 42 24 43 25c1 0 3-22 4-49z" style="fill:#e6e6e6;stroke:none"/>
    <path d="M473 845a7449 7449 0 0 0 180-106l41-23v-52l-2-52a2836 2836 0 0 0-98 55l-3-102-2-116-1-15-43 25-42 26-2 120-2 119-51 31-50 31v101l23-13 52-29zM211 758c11-6 29-16 39-24l19-13-38-22-43-22c-3 0-3 9-2 46 0 26 2 46 3 46l22-11z" style="fill:#4d4d4d;stroke:none"/>
    <path d="M172 710c0-30 1-56 2-57 2-1 39 19 150 82l56 31c1 1 2-22 1-50v-50l-49-28-125-73-34-20-1-60-1-60-23-13a6144 6144 0 0 1-61-36c-2 0-1 310 1 329l1 18 40 22 41 22c1 0 2-26 2-57z" style="fill:#e6e6e6;stroke:none"/>
    <path d="m452 736 32-18v-38l2-47c2-19-1-18-45 8l-42 25-1 51-1 50 12-6 43-25z" style="fill:#4d4d4d;stroke:none"/>
    <path d="M434 626c24-14 42-26 41-26-3-3-52-31-69-40l-20-9-11 6c-43 25-72 43-72 45 0 3 80 49 86 49 2 0 22-11 45-25zM636 629a1894 1894 0 0 1 50-30c0-3-64-40-76-43-5-2-5-1-5 19 0 24 3 68 4 68l27-14z" style="fill:#b3b3b3;stroke:none"/>
    <path d="M277 538v-51l-17-11c-24-15-69-41-71-39l-2 50-1 49 27 16c21 14 61 36 63 36l1-50z" style="fill:#e6e6e6;stroke:none"/>
    <path d="m356 554 25-14v-55l1-54-9 4-80 50c-2 2-3 13-1 53l1 50 19-10 44-24z" style="fill:#4d4d4d;stroke:none"/>
    <path d="m484 482-85-48-1 51v52l44 24 43 24 1-50c1-38 0-51-2-53z" style="fill:#e6e6e6;stroke:none"/>
    <path d="m657 496 37-22V373l-11 6-43 24-32 19-1 52v52l6-4 44-26z" style="fill:#4d4d4d;stroke:none"/>
    <path d="m389 409 103-60 53 30c62 36 48 36 105 0l36-22-40-23c-174-99-241-137-249-140l-10-4-31 18-41 26c-9 7-9 8-5 11a5646 5646 0 0 0 89 53c0 1-45 30-101 63-67 40-99 61-97 62a36716 36716 0 0 1 84 47l104-61z" style="fill:#b3b3b3;stroke:none"/>
    <path d="M514 461c35-22 64-41 63-43s-23-15-68-42l-18-10-9 5-43 27-34 20 9 6c21 13 80 46 82 46l18-9zM230 385l31-20 8-7-25-15-45-24-19-9-14 9-42 26c-28 17-28 17-22 21l42 25 37 21 13-6 36-21z" style="fill:#b3b3b3;stroke:none"/>
    <path d="m339 320 34-21c-1-2-78-46-79-46-2 0-4 32-2 61 1 33 2 33 7 30l40-24z" style="fill:#e6e6e6;stroke:none"/>
</svg>